<?xml version="1.0" encoding="UTF-8"?>
<svg width="120px" height="120px" viewBox="0 0 120 120" version="1.1" xmlns="http://www.w3.org/2000/svg" xmlns:xlink="http://www.w3.org/1999/xlink">
    <!-- Generator: Sketch 60.1 (88133) - https://sketch.com -->
    <title>c02n</title>
    <desc>Created with Sketch.</desc>
    <defs>
        <circle id="path-1" cx="35" cy="35" r="25.5084746"></circle>
        <filter x="-17.6%" y="-17.6%" width="135.3%" height="135.3%" filterUnits="objectBoundingBox" id="filter-2">
            <feOffset dx="0" dy="0" in="SourceAlpha" result="shadowOffsetOuter1"></feOffset>
            <feGaussianBlur stdDeviation="3" in="shadowOffsetOuter1" result="shadowBlurOuter1"></feGaussianBlur>
            <feColorMatrix values="0 0 0 0 1   0 0 0 0 1   0 0 0 0 1  0 0 0 1 0" type="matrix" in="shadowBlurOuter1"></feColorMatrix>
        </filter>
        <polygon id="path-3" points="98 28.5 96.2366442 29.427051 96.5734152 27.4635255 95.1468305 26.072949 97.1183221 25.7864745 98 24 98.8816779 25.7864745 100.85317 26.072949 99.4265848 27.4635255 99.7633558 29.427051"></polygon>
        <filter x="-91.7%" y="-96.0%" width="283.4%" height="275.2%" filterUnits="objectBoundingBox" id="filter-4">
            <feMorphology radius="0.5" operator="dilate" in="SourceAlpha" result="shadowSpreadOuter1"></feMorphology>
            <feOffset dx="0" dy="0" in="shadowSpreadOuter1" result="shadowOffsetOuter1"></feOffset>
            <feGaussianBlur stdDeviation="1" in="shadowOffsetOuter1" result="shadowBlurOuter1"></feGaussianBlur>
            <feColorMatrix values="0 0 0 0 1   0 0 0 0 1   0 0 0 0 1  0 0 0 0.204845935 0" type="matrix" in="shadowBlurOuter1"></feColorMatrix>
        </filter>
        <polygon id="path-5" points="78.5 12.25 77.6183221 12.7135255 77.7867076 11.7317627 77.0734152 11.0364745 78.0591611 10.8932373 78.5 10 78.9408389 10.8932373 79.9265848 11.0364745 79.2132924 11.7317627 79.3816779 12.7135255"></polygon>
        <filter x="-135.9%" y="-142.0%" width="371.7%" height="360.0%" filterUnits="objectBoundingBox" id="filter-6">
            <feMorphology radius="0.5" operator="dilate" in="SourceAlpha" result="shadowSpreadOuter1"></feMorphology>
            <feOffset dx="0" dy="0" in="shadowSpreadOuter1" result="shadowOffsetOuter1"></feOffset>
            <feGaussianBlur stdDeviation="0.5" in="shadowOffsetOuter1" result="shadowBlurOuter1"></feGaussianBlur>
            <feColorMatrix values="0 0 0 0 1   0 0 0 0 1   0 0 0 0 1  0 0 0 0.204845935 0" type="matrix" in="shadowBlurOuter1"></feColorMatrix>
        </filter>
        <polygon id="path-7" points="109.5 10.25 108.618322 10.7135255 108.786708 9.73176275 108.073415 9.03647451 109.059161 8.89323725 109.5 8 109.940839 8.89323725 110.926585 9.03647451 110.213292 9.73176275 110.381678 10.7135255"></polygon>
        <filter x="-135.9%" y="-142.0%" width="371.7%" height="360.0%" filterUnits="objectBoundingBox" id="filter-8">
            <feMorphology radius="0.5" operator="dilate" in="SourceAlpha" result="shadowSpreadOuter1"></feMorphology>
            <feOffset dx="0" dy="0" in="shadowSpreadOuter1" result="shadowOffsetOuter1"></feOffset>
            <feGaussianBlur stdDeviation="0.5" in="shadowOffsetOuter1" result="shadowBlurOuter1"></feGaussianBlur>
            <feColorMatrix values="0 0 0 0 1   0 0 0 0 1   0 0 0 0 1  0 0 0 0.204845935 0" type="matrix" in="shadowBlurOuter1"></feColorMatrix>
        </filter>
    </defs>
    <g id="c02n" stroke="none" stroke-width="1" fill="none" fill-rule="evenodd">
        <g id="moon" transform="translate(7.000000, 8.000000)">
            <circle id="Oval" fill-opacity="0.3" fill="#FFFFFF" cx="35" cy="35" r="35"></circle>
            <g id="Oval">
                <use fill="black" fill-opacity="1" filter="url(#filter-2)" xlink:href="#path-1"></use>
                <use fill="#284B6A" fill-rule="evenodd" xlink:href="#path-1"></use>
            </g>
            <circle id="Oval" fill="#284B6A" cx="35" cy="35" r="24.3220339"></circle>
            <path d="M9.49152542,60.5084746 C23.5794669,60.5084746 35,49.0879415 35,35 C35,20.9120585 23.5794669,9.49152542 9.49152542,9.49152542 C25.5084746,18.9830508 24.3220339,51.0169492 9.49152542,60.5084746 Z" id="Oval" fill="#FFC72C" transform="translate(22.245763, 35.000000) scale(-1, 1) translate(-22.245763, -35.000000) "></path>
            <path d="M30.4662672,20.7059388 C18.6717115,20.7059388 9.11033501,30.2673154 9.11033501,42.061871" id="Oval" stroke="#FFFFFF" stroke-width="2.37288136" stroke-linecap="round" transform="translate(19.788301, 31.383905) rotate(-32.000000) translate(-19.788301, -31.383905) "></path>
            <circle id="Oval" stroke="#3A547C" stroke-width="0.7" cx="32.55" cy="32.55" r="1.4"></circle>
            <circle id="Oval-Copy" stroke="#3A547C" stroke-width="0.7" cx="35.35" cy="17.85" r="1.4"></circle>
            <circle id="Oval-Copy-2" stroke="#3A547C" stroke-width="0.7" cx="43.05" cy="36.75" r="1.4"></circle>
            <circle id="Oval-Copy-2" stroke="#3A547C" stroke-width="0.7" cx="36.75" cy="40.25" r="1.4"></circle>
            <circle id="Oval-Copy-3" stroke="#3A547C" stroke-width="0.7" cx="36.05" cy="49.35" r="1.4"></circle>
            <circle id="Oval-Copy-4" stroke="#3A547C" stroke-width="0.7" cx="50.05" cy="43.75" r="1.4"></circle>
            <circle id="Oval-Copy-5" stroke="#3A547C" stroke-width="0.7" cx="43.05" cy="24.15" r="1.4"></circle>
            <ellipse id="Oval-Copy-5" stroke="#3A547C" stroke-width="0.7" cx="51.8" cy="30.8" rx="2.45" ry="3.15"></ellipse>
        </g>
        <path d="M29,111 C17.954305,111 9,101.59798 9,90 C9,78.4020203 17.954305,69 29,69 C30.4253194,69 31.8158151,69.1565523 33.1567416,69.4541739 C34.6795048,54.5929975 47.2359076,43 62.5,43 C75.5019305,43 86.5392679,51.4114225 90.467207,63.089462 C91.1365715,63.0299439 91.8148617,63 92.5,63 C105.478692,63 116,73.745166 116,87 C116,100.083925 105.748267,110.722485 93.000801,110.994658 L93,111 Z" id="cloud" fill="#FFFFFF"></path>
        <g id="Star">
            <use fill="black" fill-opacity="1" filter="url(#filter-4)" xlink:href="#path-3"></use>
            <use fill="#FFFFFF" fill-rule="evenodd" xlink:href="#path-3"></use>
        </g>
        <g id="Star">
            <use fill="black" fill-opacity="1" filter="url(#filter-6)" xlink:href="#path-5"></use>
            <use fill="#FFFFFF" fill-rule="evenodd" xlink:href="#path-5"></use>
        </g>
        <g id="Star">
            <use fill="black" fill-opacity="1" filter="url(#filter-8)" xlink:href="#path-7"></use>
            <use fill="#FFFFFF" fill-rule="evenodd" xlink:href="#path-7"></use>
        </g>
    </g>
</svg>