<?xml version="1.0" encoding="UTF-8"?>
<svg width="120px" height="120px" viewBox="0 0 120 120" version="1.1" xmlns="http://www.w3.org/2000/svg" xmlns:xlink="http://www.w3.org/1999/xlink">
    <!-- Generator: Sketch 60.1 (88133) - https://sketch.com -->
    <title>c03d</title>
    <desc>Created with Sketch.</desc>
    <g id="c03d" stroke="none" stroke-width="1" fill="none" fill-rule="evenodd">
        <g id="sun" transform="translate(9.000000, 17.000000)">
            <circle id="shine" fill-opacity="0.3" fill="#FFC72C" cx="30" cy="30" r="30"></circle>
            <circle id="mass" fill="#FFC72C" cx="30" cy="30" r="21.8644068"></circle>
            <path d="M30.5084746,13.220339 C20.9605009,13.220339 13.220339,20.9605009 13.220339,30.5084746" id="highlight" stroke="#FFFFFF" stroke-width="2.44067797"></path>
        </g>
        <path d="M46,77 C36.6111593,77 29,68.9411255 29,59 C29,49.0588745 36.6111593,41 46,41 C47.0750124,41 48.1267194,41.1056519 49.1463644,41.3076841 C50.5152881,28.7671865 61.3442072,19 74.5,19 C85.7461655,19 95.2919443,26.1374712 98.681569,36.0440142 C99.1167128,36.014785 99.5566719,36 100,36 C111.045695,36 120,45.1781626 120,56.5 C120,67.4778933 111.581474,76.4403782 101.000683,76.9747864 L101,77 Z" id="cloud-copy" fill="#F1F2F3" opacity="0.9" transform="translate(74.500000, 48.000000) scale(-1, 1) translate(-74.500000, -48.000000) "></path>
        <path d="M29,111 C17.954305,111 9,101.59798 9,90 C9,78.4020203 17.954305,69 29,69 C30.4253194,69 31.8158151,69.1565523 33.1567416,69.4541739 C34.6795048,54.5929975 47.2359076,43 62.5,43 C75.5019305,43 86.5392679,51.4114225 90.467207,63.089462 C91.1365715,63.0299439 91.8148617,63 92.5,63 C105.478692,63 116,73.745166 116,87 C116,100.083925 105.748267,110.722485 93.000801,110.994658 L93,111 Z" id="cloud" fill="#FFFFFF"></path>
    </g>
</svg>