<?xml version="1.0" encoding="UTF-8"?>
<svg width="120px" height="120px" viewBox="0 0 120 120" version="1.1" xmlns="http://www.w3.org/2000/svg" xmlns:xlink="http://www.w3.org/1999/xlink">
    <!-- Generator: Sketch 60.1 (88133) - https://sketch.com -->
    <title>c04d</title>
    <desc>Created with Sketch.</desc>
    <g id="c04d" stroke="none" stroke-width="1" fill="none" fill-rule="evenodd">
        <path d="M46,77 C36.6111593,77 29,68.9411255 29,59 C29,49.0588745 36.6111593,41 46,41 C47.0750124,41 48.1267194,41.1056519 49.1463644,41.3076841 C50.5152881,28.7671865 61.3442072,19 74.5,19 C85.7461655,19 95.2919443,26.1374712 98.681569,36.0440142 C99.1167128,36.014785 99.5566719,36 100,36 C111.045695,36 120,45.1781626 120,56.5 C120,67.4778933 111.581474,76.4403782 101.000683,76.9747864 L101,77 Z" id="cloud-copy" fill="#F1F2F3" opacity="0.9" transform="translate(74.500000, 48.000000) scale(-1, 1) translate(-74.500000, -48.000000) "></path>
        <path d="M11,77 L11.0002062,76.9888709 C4.88080153,76.7158201 0,71.4526782 0,65 C0,58.372583 5.14872538,53 11.5,53 C12.0443455,53 12.5798575,53.0394649 13.1040517,53.1158022 C14.0402116,44.6141039 21.2477024,38 30,38 C37.3116135,38 43.5451334,42.6158673 45.9454982,49.0925404 C46.4547317,49.0312143 46.9738508,49 47.5,49 C54.9558441,49 61,55.2680135 61,63 C61,70.5581283 55.2246009,76.71738 48.000753,76.9905473 L48,77 L11,77 Z" id="cloud-copy" fill="#F1F2F3" opacity="0.9"></path>
        <path d="M29,111 C17.954305,111 9,101.59798 9,90 C9,78.4020203 17.954305,69 29,69 C30.4253194,69 31.8158151,69.1565523 33.1567416,69.4541739 C34.6795048,54.5929975 47.2359076,43 62.5,43 C75.5019305,43 86.5392679,51.4114225 90.467207,63.089462 C91.1365715,63.0299439 91.8148617,63 92.5,63 C105.478692,63 116,73.745166 116,87 C116,100.083925 105.748267,110.722485 93.000801,110.994658 L93,111 Z" id="cloud" fill="#FFFFFF"></path>
    </g>
</svg>