<?xml version="1.0" encoding="UTF-8"?>
<svg width="120px" height="120px" viewBox="0 0 120 120" version="1.1" xmlns="http://www.w3.org/2000/svg" xmlns:xlink="http://www.w3.org/1999/xlink">
    <!-- Generator: Sketch 60.1 (88133) - https://sketch.com -->
    <title>d03d</title>
    <desc>Created with Sketch.</desc>
    <g id="d03d" stroke="none" stroke-width="1" fill="none" fill-rule="evenodd">
        <path d="M13,70 L13.0002062,69.9888709 C6.88080153,69.7158201 2,64.4526782 2,58 C2,51.372583 7.14872538,46 13.5,46 C14.0443455,46 14.5798575,46.0394649 15.1040517,46.1158022 C16.0402116,37.6141039 23.2477024,31 32,31 C39.3116135,31 45.5451334,35.6158673 47.9454982,42.0925404 C48.4547317,42.0312143 48.9738508,42 49.5,42 C56.9558441,42 63,48.2680135 63,56 C63,63.5581283 57.2246009,69.71738 50.000753,69.9905473 L50,70 L13,70 Z" id="cloud-copy" fill="#F1F2F3" opacity="0.7"></path>
        <path d="M32,85 C20.954305,85 12,75.5979797 12,64 C12,52.4020203 20.954305,43 32,43 C33.4253194,43 34.8158151,43.1565523 36.1567416,43.4541739 C37.6795048,28.5929975 50.2359076,17 65.5,17 C78.5019305,17 89.5392679,25.4114225 93.467207,37.089462 C94.1365715,37.0299439 94.8148617,37 95.5,37 C108.478692,37 119,47.745166 119,61 C119,74.0839254 108.748267,84.7224852 96.000801,84.9946583 L96,85 Z" id="cloud" fill="#F1F2F3"></path>
        <line x1="52.8125" y1="113.5" x2="52.875" y2="89.5" id="Line" stroke="#3084B3" stroke-width="4" opacity="0.850265067" stroke-linecap="round" stroke-dasharray="0,12"></line>
        <line x1="39.84375" y1="113.5" x2="39.90625" y2="89.5" id="Line-Copy-4" stroke="#3084B3" stroke-width="3" opacity="0.850265067" stroke-linecap="round" stroke-dasharray="0,11"></line>
        <line x1="66.8125" y1="113.5" x2="66.875" y2="89.5" id="Line-Copy" stroke="#3084B3" stroke-width="3" opacity="0.850265067" stroke-linecap="round" stroke-dasharray="0,11"></line>
        <line x1="79.8125" y1="113.5" x2="79.875" y2="89.5" id="Line-Copy-2" stroke="#3084B3" stroke-width="4" opacity="0.850265067" stroke-linecap="round" stroke-dasharray="0,12"></line>
        <line x1="92.8125" y1="113.5" x2="92.875" y2="89.5" id="Line-Copy-3" stroke="#3084B3" stroke-width="3" opacity="0.850265067" stroke-linecap="round" stroke-dasharray="0,11"></line>
    </g>
</svg>