<?xml version="1.0" encoding="UTF-8"?>
<svg width="120px" height="120px" viewBox="0 0 120 120" version="1.1" xmlns="http://www.w3.org/2000/svg" xmlns:xlink="http://www.w3.org/1999/xlink">
    <!-- Generator: Sketch 60.1 (88133) - https://sketch.com -->
    <title>s02d</title>
    <desc>Created with Sketch.</desc>
    <g id="s02d" stroke="none" stroke-width="1" fill="none" fill-rule="evenodd">
        <path d="M28,83 C18.0140772,82.7066089 10,73.8650818 10,63 C10,51.954305 18.2827321,43 28.5,43 C29.7757469,43 31.0213334,43.1396019 32.2244018,43.405446 C33.9570701,29.6392814 45.5082533,19 59.5,19 C71.6444089,19 81.9501682,27.0153261 85.5927674,38.1337496 C86.3838812,38.0451253 87.1867879,38 88,38 C100.150264,38 110,48.0735931 110,60.5 C110,72.9264069 100.150264,83 88,83 L88,83 L28,83 Z" id="cloud" fill="#FFFFFF"></path>
        <circle id="Oval" fill="#F2F2F2" opacity="0.602167039" cx="44" cy="91" r="3"></circle>
        <circle id="Oval-Copy-9" fill="#F2F2F2" opacity="0.602167039" cx="26" cy="91" r="3"></circle>
        <circle id="Oval-Copy-4" fill="#F2F2F2" cx="53" cy="76" r="3"></circle>
        <circle id="Oval-Copy-7" fill="#F2F2F2" cx="38" cy="76" r="3"></circle>
        <circle id="Oval-Copy-5" fill="#F2F2F2" cx="70" cy="76" r="3"></circle>
        <circle id="Oval-Copy-6" fill="#F2F2F2" cx="87" cy="76" r="3"></circle>
        <circle id="Oval" fill="#F2F2F2" opacity="0.602167039" cx="60" cy="91" r="3"></circle>
        <circle id="Oval-Copy-11" fill="#F2F2F2" opacity="0.399925595" cx="16.5" cy="101.5" r="2.5"></circle>
        <circle id="Oval-Copy-17" fill="#F2F2F2" opacity="0.248325893" cx="26.5" cy="112.5" r="2.5"></circle>
        <circle id="Oval-Copy-18" fill="#F2F2F2" opacity="0.248325893" cx="46.5" cy="112.5" r="2.5"></circle>
        <circle id="Oval-Copy-19" fill="#F2F2F2" opacity="0.248325893" cx="63.5" cy="112.5" r="2.5"></circle>
        <circle id="Oval-Copy-20" fill="#F2F2F2" opacity="0.248325893" cx="80.5" cy="112.5" r="2.5"></circle>
        <circle id="Oval-Copy-21" fill="#F2F2F2" opacity="0.248325893" cx="97.5" cy="112.5" r="2.5"></circle>
        <circle id="Oval-Copy-12" fill="#F2F2F2" opacity="0.399925595" cx="34.5" cy="101.5" r="2.5"></circle>
        <circle id="Oval-Copy-13" fill="#F2F2F2" opacity="0.399925595" cx="53.5" cy="101.5" r="2.5"></circle>
        <circle id="Oval-Copy-14" fill="#F2F2F2" opacity="0.399925595" cx="69.5" cy="101.5" r="2.5"></circle>
        <circle id="Oval-Copy-15" fill="#F2F2F2" opacity="0.399925595" cx="87.5" cy="101.5" r="2.5"></circle>
        <circle id="Oval-Copy-16" fill="#F2F2F2" opacity="0.399925595" cx="103.5" cy="101.5" r="2.5"></circle>
        <circle id="Oval" fill="#F2F2F2" opacity="0.602167039" cx="77" cy="91" r="3"></circle>
        <circle id="Oval" fill="#F2F2F2" opacity="0.602167039" cx="93" cy="91" r="3"></circle>
    </g>
</svg>