<?xml version="1.0" encoding="UTF-8"?>
<svg width="120px" height="120px" viewBox="0 0 120 120" version="1.1" xmlns="http://www.w3.org/2000/svg" xmlns:xlink="http://www.w3.org/1999/xlink">
    <!-- Generator: Sketch 60.1 (88133) - https://sketch.com -->
    <title>s03d</title>
    <desc>Created with Sketch.</desc>
    <g id="s03d" stroke="none" stroke-width="1" fill="none" fill-rule="evenodd">
        <path d="M28,83 C18.0140772,82.7066089 10,73.8650818 10,63 C10,51.954305 18.2827321,43 28.5,43 C29.7757469,43 31.0213334,43.1396019 32.2244018,43.405446 C33.9570701,29.6392814 45.5082533,19 59.5,19 C71.6444089,19 81.9501682,27.0153261 85.5927674,38.1337496 C86.3838812,38.0451253 87.1867879,38 88,38 C100.150264,38 110,48.0735931 110,60.5 C110,72.9264069 100.150264,83 88,83 L88,83 L28,83 Z" id="cloud" fill="#FFFFFF"></path>
        <circle id="Oval" fill="#F2F2F2" opacity="0.8" cx="59" cy="91" r="3"></circle>
        <circle id="Oval-Copy-4" fill="#F2F2F2" cx="54.5" cy="74.5" r="4.5"></circle>
        <circle id="Oval-Copy-7" fill="#F2F2F2" cx="37" cy="77" r="2"></circle>
        <circle id="Oval-Copy-5" fill="#F2F2F2" cx="77" cy="77" r="2"></circle>
        <circle id="Oval" fill="#F2F2F2" opacity="0.8" cx="61" cy="108" r="5"></circle>
        <circle id="Oval-Copy" fill="#F2F2F2" opacity="0.8" cx="30" cy="93" r="5"></circle>
        <circle id="Oval-Copy-18" fill="#F2F2F2" opacity="0.45" cx="43.5" cy="93.5" r="2.5"></circle>
        <circle id="Oval-Copy-19" fill="#F2F2F2" opacity="0.45" cx="47.5" cy="105.5" r="2.5"></circle>
        <circle id="Oval-Copy-22" fill="#F2F2F2" opacity="0.45" cx="92.5" cy="110.5" r="2.5"></circle>
        <circle id="Oval-Copy-20" fill="#F2F2F2" opacity="0.45" cx="75.5" cy="93.5" r="2.5"></circle>
        <circle id="Oval-Copy-21" fill="#F2F2F2" opacity="0.45" cx="32.5" cy="110.5" r="2.5"></circle>
        <circle id="Oval-Copy-16" fill="#F2F2F2" opacity="0.801334635" cx="80.5" cy="105.5" r="2.5"></circle>
        <circle id="Oval" fill="#F2F2F2" opacity="0.8" cx="89" cy="93" r="5"></circle>
    </g>
</svg>