<?xml version="1.0" encoding="UTF-8"?>
<svg width="120px" height="120px" viewBox="0 0 120 120" version="1.1" xmlns="http://www.w3.org/2000/svg" xmlns:xlink="http://www.w3.org/1999/xlink">
    <!-- Generator: Sketch 60.1 (88133) - https://sketch.com -->
    <title>s06n</title>
    <desc>Created with Sketch.</desc>
    <defs>
        <polygon id="path-1" points="98 28.5 96.2366442 29.427051 96.5734152 27.4635255 95.1468305 26.072949 97.1183221 25.7864745 98 24 98.8816779 25.7864745 100.85317 26.072949 99.4265848 27.4635255 99.7633558 29.427051"></polygon>
        <filter x="-91.7%" y="-96.0%" width="283.4%" height="275.2%" filterUnits="objectBoundingBox" id="filter-2">
            <feMorphology radius="0.5" operator="dilate" in="SourceAlpha" result="shadowSpreadOuter1"></feMorphology>
            <feOffset dx="0" dy="0" in="shadowSpreadOuter1" result="shadowOffsetOuter1"></feOffset>
            <feGaussianBlur stdDeviation="1" in="shadowOffsetOuter1" result="shadowBlurOuter1"></feGaussianBlur>
            <feColorMatrix values="0 0 0 0 1   0 0 0 0 1   0 0 0 0 1  0 0 0 0.204845935 0" type="matrix" in="shadowBlurOuter1"></feColorMatrix>
        </filter>
        <polygon id="path-3" points="78.5 12.25 77.6183221 12.7135255 77.7867076 11.7317627 77.0734152 11.0364745 78.0591611 10.8932373 78.5 10 78.9408389 10.8932373 79.9265848 11.0364745 79.2132924 11.7317627 79.3816779 12.7135255"></polygon>
        <filter x="-135.9%" y="-142.0%" width="371.7%" height="360.0%" filterUnits="objectBoundingBox" id="filter-4">
            <feMorphology radius="0.5" operator="dilate" in="SourceAlpha" result="shadowSpreadOuter1"></feMorphology>
            <feOffset dx="0" dy="0" in="shadowSpreadOuter1" result="shadowOffsetOuter1"></feOffset>
            <feGaussianBlur stdDeviation="0.5" in="shadowOffsetOuter1" result="shadowBlurOuter1"></feGaussianBlur>
            <feColorMatrix values="0 0 0 0 1   0 0 0 0 1   0 0 0 0 1  0 0 0 0.204845935 0" type="matrix" in="shadowBlurOuter1"></feColorMatrix>
        </filter>
        <polygon id="path-5" points="109.5 10.25 108.618322 10.7135255 108.786708 9.73176275 108.073415 9.03647451 109.059161 8.89323725 109.5 8 109.940839 8.89323725 110.926585 9.03647451 110.213292 9.73176275 110.381678 10.7135255"></polygon>
        <filter x="-135.9%" y="-142.0%" width="371.7%" height="360.0%" filterUnits="objectBoundingBox" id="filter-6">
            <feMorphology radius="0.5" operator="dilate" in="SourceAlpha" result="shadowSpreadOuter1"></feMorphology>
            <feOffset dx="0" dy="0" in="shadowSpreadOuter1" result="shadowOffsetOuter1"></feOffset>
            <feGaussianBlur stdDeviation="0.5" in="shadowOffsetOuter1" result="shadowBlurOuter1"></feGaussianBlur>
            <feColorMatrix values="0 0 0 0 1   0 0 0 0 1   0 0 0 0 1  0 0 0 0.204845935 0" type="matrix" in="shadowBlurOuter1"></feColorMatrix>
        </filter>
    </defs>
    <g id="s06n" stroke="none" stroke-width="1" fill="none" fill-rule="evenodd">
        <g id="Star">
            <use fill="black" fill-opacity="1" filter="url(#filter-2)" xlink:href="#path-1"></use>
            <use fill="#FFFFFF" fill-rule="evenodd" xlink:href="#path-1"></use>
        </g>
        <g id="Star">
            <use fill="black" fill-opacity="1" filter="url(#filter-4)" xlink:href="#path-3"></use>
            <use fill="#FFFFFF" fill-rule="evenodd" xlink:href="#path-3"></use>
        </g>
        <g id="Star">
            <use fill="black" fill-opacity="1" filter="url(#filter-6)" xlink:href="#path-5"></use>
            <use fill="#FFFFFF" fill-rule="evenodd" xlink:href="#path-5"></use>
        </g>
        <path d="M28,83 C18.0140772,82.7066089 10,73.8650818 10,63 C10,51.954305 18.2827321,43 28.5,43 C29.7757469,43 31.0213334,43.1396019 32.2244018,43.405446 C33.9570701,29.6392814 45.5082533,19 59.5,19 C71.6444089,19 81.9501682,27.0153261 85.5927674,38.1337496 C86.3838812,38.0451253 87.1867879,38 88,38 C100.150264,38 110,48.0735931 110,60.5 C110,72.9264069 100.150264,83 88,83 L88,83 L28,83 Z" id="cloud" fill="#FFFFFF"></path>
        <circle id="Oval" fill="#F2F2F2" opacity="0.4" cx="44" cy="91" r="3"></circle>
        <circle id="Oval-Copy-9" fill="#F2F2F2" opacity="0.4" cx="26" cy="91" r="3"></circle>
        <circle id="Oval-Copy-4" fill="#F2F2F2" opacity="0.497395833" cx="53" cy="76" r="3"></circle>
        <circle id="Oval-Copy-7" fill="#F2F2F2" opacity="0.497395833" cx="38" cy="76" r="3"></circle>
        <circle id="Oval-Copy-5" fill="#F2F2F2" opacity="0.497395833" cx="70" cy="76" r="3"></circle>
        <circle id="Oval-Copy-6" fill="#F2F2F2" opacity="0.497395833" cx="87" cy="76" r="3"></circle>
        <circle id="Oval" fill="#F2F2F2" opacity="0.4" cx="60" cy="91" r="3"></circle>
        <circle id="Oval-Copy-11" fill="#F2F2F2" opacity="0.2" cx="16.5" cy="101.5" r="2.5"></circle>
        <circle id="Oval-Copy-17" fill="#F2F2F2" opacity="0.2" cx="26.5" cy="112.5" r="2.5"></circle>
        <circle id="Oval-Copy-18" fill="#F2F2F2" opacity="0.2" cx="46.5" cy="112.5" r="2.5"></circle>
        <circle id="Oval-Copy-19" fill="#F2F2F2" opacity="0.2" cx="63.5" cy="112.5" r="2.5"></circle>
        <circle id="Oval-Copy-20" fill="#F2F2F2" opacity="0.2" cx="80.5" cy="112.5" r="2.5"></circle>
        <circle id="Oval-Copy-21" fill="#F2F2F2" opacity="0.2" cx="97.5" cy="112.5" r="2.5"></circle>
        <circle id="Oval-Copy-12" fill="#F2F2F2" opacity="0.2" cx="34.5" cy="101.5" r="2.5"></circle>
        <circle id="Oval-Copy-13" fill="#F2F2F2" opacity="0.2" cx="53.5" cy="101.5" r="2.5"></circle>
        <circle id="Oval-Copy-14" fill="#F2F2F2" opacity="0.2" cx="69.5" cy="101.5" r="2.5"></circle>
        <circle id="Oval-Copy-15" fill="#F2F2F2" opacity="0.2" cx="87.5" cy="101.5" r="2.5"></circle>
        <circle id="Oval-Copy-16" fill="#F2F2F2" opacity="0.2" cx="103.5" cy="101.5" r="2.5"></circle>
        <circle id="Oval" fill="#F2F2F2" opacity="0.4" cx="77" cy="91" r="3"></circle>
        <circle id="Oval" fill="#F2F2F2" opacity="0.4" cx="93" cy="91" r="3"></circle>
    </g>
</svg>