<?xml version="1.0" encoding="UTF-8"?>
<svg width="7px" height="14px" viewBox="0 0 7 14" version="1.1" xmlns="http://www.w3.org/2000/svg" xmlns:xlink="http://www.w3.org/1999/xlink">
    <!-- Generator: Sketch 60.1 (88133) - https://sketch.com -->
    <title>feels</title>
    <desc>Created with Sketch.</desc>
    <g id="feels" stroke="none" stroke-width="1" fill="none" fill-rule="evenodd" stroke-linecap="round" stroke-linejoin="round">
        <g id="temperature-thermometer-medium-copy" transform="translate(1.000000, 1.000000)" stroke="#FFFFFF" stroke-width="0.75">
            <path d="M3,8.0205 L3,1.25 C3,0.69771525 2.55228475,0.25 2,0.25 C1.44771525,0.25 1,0.69771525 1,1.25 L1,8.0205 C0.216063969,8.47310568 -0.166137592,9.39582187 0.0681483474,10.2701889 C0.302434286,11.1445559 1.09478864,11.7525508 2,11.7525508 C2.90521136,11.7525508 3.69756571,11.1445559 3.93185165,10.2701889 C4.16613759,9.39582187 3.78393603,8.47310568 3,8.0205 L3,8.0205 Z" id="Path"></path>
            <circle id="Oval" cx="2" cy="9.75" r="1"></circle>
            <line x1="2" y1="9.25" x2="2" y2="4.25" id="Path"></line>
            <line x1="4" y1="6.75" x2="5" y2="6.75" id="Path"></line>
            <line x1="4" y1="4.25" x2="5" y2="4.25" id="Path"></line>
            <line x1="4" y1="1.75" x2="5" y2="1.75" id="Path"></line>
        </g>
    </g>
</svg>