<?xml version="1.0" encoding="UTF-8"?>
<svg width="8px" height="11px" viewBox="0 0 8 11" version="1.1" xmlns="http://www.w3.org/2000/svg" xmlns:xlink="http://www.w3.org/1999/xlink">
    <!-- Generator: Sketch 60.1 (88133) - https://sketch.com -->
    <title>pin</title>
    <desc>Created with Sketch.</desc>
    <g id="pin" stroke="none" stroke-width="1" fill="none" fill-rule="evenodd">
        <path d="M4,1 C2.34391678,1.00185995 1.00185996,2.34391553 1,4 C1,5.31624598 2.875,8.50936801 3.6805,9.82149179 C3.74876443,9.93244983 3.86972436,10 4,10 C4.13052274,10.0006123 4.25180274,9.93271261 4.3195,9.82111679 C5.125,8.50974301 7,5.31774598 7,4 C6.99814004,2.34391553 5.65608322,1.00185995 4,1 Z M4,5.31249598 C3.27512627,5.31249598 2.6875,4.72487027 2.6875,3.99999721 C2.6875,3.27512415 3.27512627,2.68749843 4,2.68749843 C4.72487373,2.68749843 5.3125,3.27512415 5.3125,3.99999721 C5.3125,4.72487027 4.72487373,5.31249598 4,5.31249598 Z" id="Shape" fill="#FFFFFF" fill-rule="nonzero"></path>
    </g>
</svg>