<?xml version="1.0" encoding="UTF-8"?>
<svg width="15px" height="16px" viewBox="0 0 15 16" version="1.1" xmlns="http://www.w3.org/2000/svg" xmlns:xlink="http://www.w3.org/1999/xlink">
    <!-- Generator: Sketch 60.1 (88133) - https://sketch.com -->
    <title>sunset</title>
    <desc>Created with Sketch.</desc>
    <g id="sunset" stroke="none" stroke-width="1" fill="none" fill-rule="evenodd" stroke-linecap="round" stroke-linejoin="round">
        <g id="day-sunset-1" transform="translate(1.000000, 1.000000)" stroke="#FFFFFF">
            <polyline id="Path" points="8.7890625 10.2539062 6.4453125 12.5976562 4.1015625 10.2539062"></polyline>
            <line x1="6.4453125" y1="12.5976562" x2="6.4453125" y2="7.32421875" id="Path"></line>
            <line x1="6.4453125" y1="1.46484375" x2="6.4453125" y2="0.29296875" id="Path"></line>
            <line x1="10.1742187" y1="3.009375" x2="11.0027344" y2="2.18085937" id="Path"></line>
            <line x1="2.71640625" y1="3.009375" x2="1.88789063" y2="2.18085937" id="Path"></line>
            <line x1="10.1742187" y1="10.4671875" x2="11.0027344" y2="11.2957031" id="Path"></line>
            <line x1="2.71640625" y1="10.4671875" x2="1.88789063" y2="11.2957031" id="Path"></line>
            <line x1="1.171875" y1="6.73828125" x2="0" y2="6.73828125" id="Path"></line>
            <line x1="12.890625" y1="6.73828125" x2="11.71875" y2="6.73828125" id="Path"></line>
            <line x1="0" y1="13.7695312" x2="12.890625" y2="13.7695312" id="Path"></line>
            <path d="M9.98144531,8.80957031 C10.9939794,7.08663989 10.6173927,4.88475784 9.08981603,3.5962611 C7.56223932,2.30776437 5.32838568,2.30776437 3.80080897,3.5962611 C2.27323225,4.88475784 1.89664563,7.08663989 2.90917969,8.80957031" id="Path"></path>
        </g>
    </g>
</svg>